<?xml version="1.0" encoding="UTF-8"?>
<!DOCTYPE svg PUBLIC "-//W3C//DTD SVG 1.1//EN" "http://www.w3.org/Graphics/SVG/1.1/DTD/svg11.dtd">
<svg xmlns="http://www.w3.org/2000/svg" version="1.1" width="512px" height="512px" style="shape-rendering:geometricPrecision; text-rendering:geometricPrecision; image-rendering:optimizeQuality; fill-rule:evenodd; clip-rule:evenodd" xmlns:xlink="http://www.w3.org/1999/xlink">
<g><path style="opacity:0.98" fill="#000000" d="M 250.5,41.5 C 266.587,41.2511 280.921,46.0845 293.5,56C 326.031,82.5461 349.197,115.713 363,155.5C 366.722,167.319 367.722,179.319 366,191.5C 362.671,203.491 358.171,214.991 352.5,226C 359.753,229.195 367.086,232.195 374.5,235C 391.43,243.264 402.596,256.431 408,274.5C 413.824,297.463 419.491,320.463 425,343.5C 429.453,376.926 417.12,401.926 388,418.5C 387.714,429.52 387.214,440.52 386.5,451.5C 390.846,451.334 395.179,451.501 399.5,452C 404.599,454.904 406.099,459.071 404,464.5C 402.891,466.815 401.057,468.315 398.5,469C 303.167,469.667 207.833,469.667 112.5,469C 108.422,467.712 106.088,464.878 105.5,460.5C 105.747,456.421 107.747,453.588 111.5,452C 115.821,451.501 120.154,451.334 124.5,451.5C 123.786,440.52 123.286,429.52 123,418.5C 93.8796,401.925 81.5462,376.925 86,343.5C 91.5093,320.463 97.1759,297.463 103,274.5C 108.179,258.295 118.012,245.795 132.5,237C 141.167,233.333 149.833,229.667 158.5,226C 150.894,211.516 145.894,196.183 143.5,180C 146.657,154.86 155.157,131.694 169,110.5C 184.453,84.7139 204.953,63.8806 230.5,48C 236.992,44.8906 243.658,42.724 250.5,41.5 Z M 244.5,157.5 C 272.213,156.505 299.213,160.339 325.5,169C 333.102,171.94 339.602,176.44 345,182.5C 347.944,186.278 348.277,190.278 346,194.5C 342.939,206.626 337.272,217.293 329,226.5C 327.376,233.745 330.21,238.245 337.5,240C 350.701,244.603 363.367,250.269 375.5,257C 383.316,263.459 388.482,271.625 391,281.5C 397.703,306.478 403.537,331.645 408.5,357C 407.518,373.133 400.851,386.299 388.5,396.5C 387.667,363.172 387.167,329.838 387,296.5C 384.603,285.103 377.77,277.937 366.5,275C 291.123,274.012 215.789,274.346 140.5,276C 131.295,279.87 125.795,286.703 124,296.5C 123.833,329.838 123.333,363.172 122.5,396.5C 103.112,379.141 97.9453,358.141 107,333.5C 111.688,314.081 116.688,294.748 122,275.5C 126.387,265.113 133.554,257.28 143.5,252C 155.581,247.195 167.581,242.195 179.5,237C 182.265,234.005 183.098,230.505 182,226.5C 174.34,218.185 169.007,208.519 166,197.5C 163.121,192.403 163.121,187.403 166,182.5C 174.773,173.694 185.273,167.86 197.5,165C 213.072,160.959 228.738,158.459 244.5,157.5 Z"/></g>
<g><path style="opacity:0.978" fill="#000000" d="M 246.5,173.5 C 270.823,173.032 294.823,175.532 318.5,181C 322.508,182.113 326.341,183.613 330,185.5C 327.751,218.753 311.584,242.586 281.5,257C 237.412,268.54 205.578,253.707 186,212.5C 182.021,203.624 180.521,194.457 181.5,185C 188.826,181.585 196.492,179.251 204.5,178C 218.579,175.787 232.579,174.287 246.5,173.5 Z"/></g>
</svg>
